<svg version="1.1" id="Layer_1" xmlns="http://www.w3.org/2000/svg" xmlns:xlink="http://www.w3.org/1999/xlink" x="0px" y="0px"
	 width="100%" viewBox="0 0 500 500" enable-background="new 0 0 500 500" xml:space="preserve">
<path fill="#000000" opacity="1.000000" stroke="none" 
	d="
M234.000000,501.000000 
	C156.000015,501.000000 78.500038,501.000000 1.000041,501.000000 
	C1.000028,334.333405 1.000028,167.666779 1.000014,1.000131 
	C167.666565,1.000087 334.333130,1.000087 500.999756,1.000044 
	C500.999847,167.666519 500.999847,334.333038 500.999939,500.999786 
	C412.166656,501.000000 323.333344,501.000000 234.000000,501.000000 
M330.744080,124.239807 
	C314.678589,124.162041 298.613129,124.076332 282.547546,124.044174 
	C282.055450,124.043182 281.562256,124.599373 280.981506,125.360153 
	C280.981506,125.360153 280.926697,125.829590 280.889679,125.987877 
	C280.889679,125.987877 281.002258,126.105125 280.270996,126.531113 
	C280.206696,143.663498 280.142426,160.795898 279.622223,178.517105 
	C276.726044,177.681061 273.802216,176.929749 270.938019,175.995636 
	C247.309219,168.289490 224.062790,168.659668 201.548523,179.802658 
	C191.606506,184.723251 183.081665,191.414413 175.416153,199.777588 
	C163.336929,212.956161 155.996094,227.833725 152.624756,245.297806 
	C148.741135,265.415588 152.172241,284.489563 159.627472,302.939148 
	C162.272171,309.484039 167.303329,315.106567 171.485550,320.978882 
	C178.769974,331.207001 188.461365,338.818512 199.435730,344.569214 
	C209.640442,349.916626 220.563812,353.360321 232.185257,354.512360 
	C247.182068,355.999023 261.745636,354.132050 275.625214,348.592194 
	C287.927399,343.681915 298.458344,335.989594 307.426971,326.027466 
	C321.100891,310.838745 329.219086,293.357727 331.818634,272.678833 
	C331.880035,272.352142 331.995148,272.025421 331.995209,271.698730 
	C332.004822,223.909668 332.013550,176.120575 331.963470,128.331573 
	C331.962250,127.179588 331.301392,126.028297 330.952484,125.046837 
	C330.952484,125.046837 331.122559,125.053619 330.744080,124.239807 
z"/>
<path fill="#17334D" opacity="1.000000" stroke="none" 
	d="
M330.979248,272.966827 
	C329.219086,293.357727 321.100891,310.838745 307.426971,326.027466 
	C298.458344,335.989594 287.927399,343.681915 275.625214,348.592194 
	C261.745636,354.132050 247.182068,355.999023 232.185257,354.512360 
	C220.563812,353.360321 209.640442,349.916626 199.435730,344.569214 
	C188.461365,338.818512 178.769974,331.207001 171.485550,320.978882 
	C167.303329,315.106567 162.272171,309.484039 159.627472,302.939148 
	C152.172241,284.489563 148.741135,265.415588 152.624756,245.297806 
	C155.996094,227.833725 163.336929,212.956161 175.416153,199.777588 
	C183.081665,191.414413 191.606506,184.723251 201.548523,179.802658 
	C224.062790,168.659668 247.309219,168.289490 270.938019,175.995636 
	C273.802216,176.929749 276.726044,177.681061 280.142334,177.932312 
	C280.775726,160.266724 280.888977,143.185928 281.002258,126.105125 
	C281.002258,126.105125 280.889679,125.987877 281.381165,125.968048 
	C295.851990,125.968987 309.837799,126.240425 323.807404,125.881317 
	C329.048248,125.746597 330.117188,127.490196 330.097473,132.394211 
	C329.917969,176.995407 329.983276,221.597672 330.028442,266.199554 
	C330.030426,268.136078 330.532501,270.072083 330.878662,272.241882 
	C330.955750,272.475464 330.979248,272.966827 330.979248,272.966827 
M277.365906,235.070786 
	C270.229797,223.863892 259.389648,217.702789 246.836792,216.204041 
	C229.166306,214.094238 214.808609,221.624069 203.996674,235.585770 
	C195.934982,245.996017 194.642838,258.292969 196.228607,270.732483 
	C197.622070,281.663361 202.868347,291.028778 211.613144,298.066864 
	C223.753082,307.837463 237.309418,312.633698 252.726028,307.739960 
	C258.840240,305.799133 265.053711,302.997986 270.087738,299.117218 
	C276.733521,293.993927 281.661438,287.024323 284.480560,278.837738 
	C289.848724,263.249084 287.799927,248.818863 277.365906,235.070786 
z"/>
<path fill="#0E1E2D" opacity="1.000000" stroke="none" 
	d="
M330.801636,272.008331 
	C330.532501,270.072083 330.030426,268.136078 330.028442,266.199554 
	C329.983276,221.597672 329.917969,176.995407 330.097473,132.394211 
	C330.117188,127.490196 329.048248,125.746597 323.807404,125.881317 
	C309.837799,126.240425 295.851990,125.968987 281.399658,125.888908 
	C280.926697,125.829590 280.981506,125.360153 281.487152,125.174538 
	C298.369385,125.010483 314.745972,125.032051 331.122559,125.053619 
	C331.122559,125.053619 330.952484,125.046837 330.953247,125.438477 
	C330.970886,145.122711 331.021545,164.415359 330.996826,183.707901 
	C330.959167,213.141418 330.869324,242.574860 330.801636,272.008331 
z"/>
<path fill="#EFF7FF" opacity="1.000000" stroke="none" 
	d="
M330.878693,272.241882 
	C330.869324,242.574860 330.959167,213.141418 330.996826,183.707901 
	C331.021545,164.415359 330.970886,145.122711 330.951111,125.353394 
	C331.301392,126.028297 331.962250,127.179588 331.963470,128.331573 
	C332.013550,176.120575 332.004822,223.909668 331.995209,271.698730 
	C331.995148,272.025421 331.880035,272.352142 331.398926,272.822815 
	C330.979248,272.966827 330.955750,272.475464 330.878693,272.241882 
z"/>
<path fill="#676C75" opacity="1.000000" stroke="none" 
	d="
M280.636627,126.318115 
	C280.888977,143.185928 280.775726,160.266724 280.370300,177.637909 
	C280.142426,160.795898 280.206696,143.663498 280.636627,126.318115 
z"/>
<path fill="#F7FFFF" opacity="1.000000" stroke="none" 
	d="
M330.933319,124.646713 
	C314.745972,125.032051 298.369385,125.010483 281.531189,124.942360 
	C281.562256,124.599373 282.055450,124.043182 282.547546,124.044174 
	C298.613129,124.076332 314.678589,124.162041 330.933319,124.646713 
z"/>
<path fill="#000000" opacity="1.000000" stroke="none" 
	d="
M277.637085,235.317261 
	C287.799927,248.818863 289.848724,263.249084 284.480560,278.837738 
	C281.661438,287.024323 276.733521,293.993927 270.087738,299.117218 
	C265.053711,302.997986 258.840240,305.799133 252.726028,307.739960 
	C237.309418,312.633698 223.753082,307.837463 211.613144,298.066864 
	C202.868347,291.028778 197.622070,281.663361 196.228607,270.732483 
	C194.642838,258.292969 195.934982,245.996017 203.996674,235.585770 
	C214.808609,221.624069 229.166306,214.094238 246.836792,216.204041 
	C259.389648,217.702789 270.229797,223.863892 277.637085,235.317261 
z"/>
</svg>